<svg width="95" height="98" viewBox="0 0 95 98" fill="none" xmlns="http://www.w3.org/2000/svg">
<path d="M46.9996 5.70858C41.0429 6.22973 36.5155 11.4898 37.0362 17.4473L39.7162 48.081L29.5814 52.8063C26.1872 46.9085 18.7862 44.4879 12.5039 47.4178C5.87059 50.5122 3.00111 58.3956 6.09365 65.0298C9.18738 71.6626 17.0717 74.534 23.7066 71.4403C28.2592 69.3174 31.0378 64.9367 31.3336 60.2543L43.7459 54.4661L44.9389 68.1082C41.0327 70.7061 38.6284 75.3025 39.0651 80.3064C39.7035 87.599 46.1315 92.991 53.4223 92.3539C60.7149 91.7155 66.1078 85.288 65.4705 77.997C64.8664 71.0921 59.0694 65.8932 52.2652 65.9018L51.29 54.7622L79.1582 41.7665C84.5787 39.2393 86.8696 32.6879 84.3425 27.2686L50.2752 43.1566L46.9996 5.70858ZM24.095 62.8535C22.1979 66.1394 17.9958 67.2654 14.7099 65.3682C11.4239 63.4711 10.2981 59.2689 12.1951 55.9831C14.0927 52.6964 18.2943 51.5712 21.5803 53.4683C24.8662 55.3655 25.9926 59.5668 24.095 62.8535ZM58.2079 82.5486C56.3108 85.8345 52.1088 86.9605 48.8228 85.0633C45.5369 83.1662 44.4109 78.9641 46.3081 75.6782C48.2056 72.3915 52.4073 71.2663 55.6932 73.1635C58.979 75.0605 60.1055 79.2619 58.2079 82.5486Z" fill="#99BAED"/>
</svg>
